# xmcd
#
# Track frame offsets: 
#        150
#        10304
#        35012
#        47807
#        67806
#        85815
#        99692
#        112360
#        131671
#        149167
#        163800
#        178976
#        192930
#        210133
#        227877
#        246662
#        255863
#        276655
#        292699
#        309088
#
# Disc length: 4368 seconds
#
# Revision: 0
# Processed by: cddbd v1.5.2PL0 Copyright (c) Steve Scherf et al.
# Submitted via: ExactAudioCopy v1.1
#
DISCID=2e110e14
DTITLE=Various Artist - De Pré Historie - De Jaren '70 - De Ultieme 10 CD Col
DTITLE=lectie - 1978
DYEAR=2018
DGENRE=Top 40
TTITLE0=Blondie - Denis
TTITLE1=Meat Loaf - Paradise By The Dashboard Light
TTITLE2=Ike and Tina Turner - Nutbush City Limits
TTITLE3=10CC - Dreadlock Holiday
TTITLE4=Abba - Take A Chance On Me
TTITLE5=Eruption Feat. Precious Wilson - I Can't Stand The Rain
TTITLE6=Luv' - You're The Greatest Lover
TTITLE7=Karen Young - Hot Shot
TTITLE8=Robert Palmer - Best Of Both Worlds
TTITLE9=Santana - She's Not There
TTITLE10=Patti Smith Group - Because The Night
TTITLE11=Alicia Bridges - I Love The Nightlife (Disco Round)
TTITLE12=Amanda Lear - Follow Me
TTITLE13=Barry Manilow - Copacabana (At The Copa)
TTITLE14=Clout - Save Me
TTITLE15=Henk Wijngaard - Met De Vlam In De Pijp
TTITLE16=Earth, Wind and Fire - Fantasy
TTITLE17=Grace Jones - La Vie En Rose
TTITLE18=Commodores - Three Times A Lady
TTITLE19=Umberto Tozzi - Ti Amo
EXTD=
EXTT0=
EXTT1=
EXTT2=
EXTT3=
EXTT4=
EXTT5=
EXTT6=
EXTT7=
EXTT8=
EXTT9=
EXTT10=
EXTT11=
EXTT12=
EXTT13=
EXTT14=
EXTT15=
EXTT16=
EXTT17=
EXTT18=
EXTT19=
PLAYORDER=
